<?xml version="1.0" standalone="no"?>
<!DOCTYPE svg PUBLIC "-//W3C//DTD SVG 20010904//EN"
 "http://www.w3.org/TR/2001/REC-SVG-20010904/DTD/svg10.dtd">
<svg version="1.0" xmlns="http://www.w3.org/2000/svg"
 width="1366.000000pt" height="1366.000000pt" viewBox="0 0 1366.000000 1366.000000"
 preserveAspectRatio="xMidYMid meet">
<metadata>
Created by potrace 1.14, written by Peter Selinger 2001-2017
</metadata>
<g transform="translate(0.000000,1366.000000) scale(0.100000,-0.100000)"
fill="#000000" stroke="none">
<path d="M0 6830 l0 -6830 6830 0 6830 0 0 1850 0 1850 -197 0 c-860 -1 -2594
8 -2600 13 -3 4 624 7 1395 7 l1402 0 0 4970 0 4970 -6830 0 -6830 0 0 -6830z
m6130 3250 c0 -5 -2 -10 -4 -10 -3 0 -8 5 -11 10 -3 6 -1 10 4 10 6 0 11 -4
11 -10z m2280 -180 c0 -5 -5 -10 -11 -10 -5 0 -7 5 -4 10 3 6 8 10 11 10 2 0
4 -4 4 -10z m1665 -150 c-18 -28 -519 -637 -533 -647 -17 -12 -535 -97 -551
-91 -7 2 471 584 524 637 7 8 126 34 277 61 301 55 291 53 283 40z m788 -257
c9 -9 -13 -34 -24 -27 -14 8 -11 34 4 34 8 0 17 -3 20 -7z m1266 -20 c-8 -10
-82 -99 -164 -198 -83 -99 -211 -259 -284 -355 -74 -96 -138 -181 -144 -188
-5 -7 -8 -15 -5 -18 3 -2 97 9 209 26 336 49 614 88 617 85 4 -3 -36 -56 -378
-500 -118 -154 -282 -371 -364 -483 l-148 -203 43 -57 c24 -31 216 -282 427
-556 211 -275 386 -504 388 -511 3 -8 -101 -29 -330 -68 -309 -53 -338 -56
-369 -43 -23 9 -60 48 -117 122 -77 99 -84 105 -91 83 -4 -13 -20 -138 -34
-278 -15 -140 -33 -274 -40 -298 -18 -60 -69 -136 -122 -183 -87 -77 -118 -86
-514 -152 l-364 -60 -37 -38 c-21 -21 -45 -41 -55 -44 -47 -14 -557 -94 -571
-89 -64 20 -92 56 -92 117 0 37 15 59 189 276 110 137 121 166 75 196 -19 13
-32 15 -50 8 -13 -5 -73 -70 -132 -144 l-107 -135 -65 -12 c-107 -22 -170 18
-170 109 0 39 -15 19 338 461 57 72 72 98 72 124 0 38 -32 60 -72 49 -14 -4
-85 -85 -188 -215 -110 -139 -176 -214 -198 -225 -18 -9 -58 -16 -91 -16 -51
0 -66 5 -121 41 -34 22 -63 39 -65 37 -1 -2 -19 -153 -39 -336 -20 -184 -41
-343 -48 -355 -27 -53 -283 -371 -319 -397 -56 -40 -127 -55 -187 -40 -94 23
-142 85 -142 184 0 31 11 160 26 287 14 127 24 234 22 239 -2 4 -75 -84 -162
-197 -95 -122 -178 -219 -205 -239 -25 -19 -75 -43 -111 -53 -36 -11 -537 -97
-1115 -191 l-1050 -172 -30 -33 c-16 -18 -40 -38 -51 -44 -12 -6 -158 -33
-325 -61 -167 -27 -313 -52 -325 -55 -13 -3 -84 -89 -184 -221 -90 -119 -181
-229 -203 -245 -88 -63 -199 -59 -268 10 -65 65 -65 59 -4 612 30 272 55 502
55 513 0 10 -128 -142 -285 -338 -157 -195 -302 -371 -322 -390 -82 -75 -108
-82 -623 -167 -261 -43 -485 -81 -497 -84 -22 -5 -23 -3 -23 54 0 70 -30 57
239 100 101 17 187 34 191 38 7 7 267 333 939 1176 117 147 211 270 209 273
-7 6 -640 -97 -650 -105 -4 -4 8 -29 27 -56 19 -26 35 -59 35 -73 0 -15 -46
-81 -135 -193 -74 -93 -137 -169 -140 -169 -3 0 24 36 60 81 52 64 65 88 65
115 0 41 -35 64 -74 48 -13 -5 -103 -109 -201 -231 l-177 -223 -61 1 c-34 1
-100 4 -145 7 l-84 7 266 334 c146 184 266 337 266 340 0 3 -38 55 -85 115
-47 59 -85 116 -85 126 0 10 51 83 113 162 116 147 131 168 124 168 -5 0 -32
-34 -453 -570 -365 -464 -448 -569 -456 -569 -12 -1 -60 89 -55 103 3 7 87
115 187 240 100 125 180 229 178 231 -1 2 -32 11 -68 20 -117 30 -109 23 -344
322 -179 229 -206 268 -206 296 0 31 30 85 58 103 28 19 356 77 526 94 55 5
101 12 104 14 2 3 -107 145 -242 317 -244 309 -246 312 -246 359 0 41 5 53 30
79 17 16 38 32 48 35 9 3 126 24 260 46 220 37 245 39 276 26 24 -10 76 -68
195 -220 90 -113 164 -206 167 -206 2 0 16 19 30 41 44 70 413 527 432 534 9
4 148 29 307 55 281 47 291 49 312 77 135 172 283 350 303 364 17 12 128 33
359 68 184 28 335 50 337 48 2 -1 -53 -88 -122 -191 -68 -104 -123 -190 -122
-192 2 -1 48 6 103 16 55 10 268 46 473 81 l372 63 87 105 c139 167 171 200
209 207 43 8 87 -10 119 -47 l24 -29 1268 204 c697 113 1533 248 1857 301 325
52 603 95 618 95 21 0 44 -14 82 -50 l53 -50 21 43 c12 23 35 55 51 71 28 27
46 32 258 67 293 50 292 50 348 -2 25 -23 47 -40 49 -38 1 2 62 79 134 170 73
91 144 171 158 178 37 16 761 133 773 124 2 -1 -2 -11 -10 -20z m-4010 -12
c-8 -11 -52 -66 -98 -123 -47 -57 -114 -139 -150 -183 -36 -44 -68 -82 -71
-85 -6 -5 -102 -123 -150 -185 -14 -17 -40 -48 -57 -69 l-33 -37 -267 -44
c-147 -25 -271 -44 -275 -43 -6 3 125 169 200 253 15 17 37 42 48 57 12 15 43
53 70 84 27 32 66 78 88 103 21 25 56 66 76 91 21 25 49 58 62 73 26 32 33 34
284 78 98 17 199 34 224 39 25 4 49 8 54 9 5 0 2 -8 -5 -18z m-3539 -25 c0 -3
-4 -8 -10 -11 -5 -3 -10 -1 -10 4 0 6 5 11 10 11 6 0 10 -2 10 -4z m5451 -109
c-13 -13 -26 -3 -16 12 3 6 11 8 17 5 6 -4 6 -10 -1 -17z m-4021 -227 c0 -5
-4 -10 -10 -10 -5 0 -10 5 -10 10 0 6 5 10 10 10 6 0 10 -4 10 -10z m2680 -39
c0 -6 -4 -13 -10 -16 -5 -3 -10 1 -10 9 0 9 5 16 10 16 6 0 10 -4 10 -9z
m-2710 -231 c0 -5 -4 -10 -10 -10 -5 0 -10 5 -10 10 0 6 5 10 10 10 6 0 10 -4
10 -10z m-4050 -414 c0 -3 -4 -8 -10 -11 -5 -3 -10 -1 -10 4 0 6 5 11 10 11 6
0 10 -2 10 -4z m10830 -436 c0 -5 -4 -10 -10 -10 -5 0 -10 5 -10 10 0 6 5 10
10 10 6 0 10 -4 10 -10z m-480 -90 c0 -5 -5 -10 -11 -10 -5 0 -7 5 -4 10 3 6
8 10 11 10 2 0 4 -4 4 -10z m-270 -90 c0 -5 -4 -10 -10 -10 -5 0 -10 5 -10 10
0 6 5 10 10 10 6 0 10 -4 10 -10z m-170 -190 c0 -5 -4 -10 -10 -10 -5 0 -10 5
-10 10 0 6 5 10 10 10 6 0 10 -4 10 -10z m-9930 -970 c0 -5 -4 -10 -10 -10 -5
0 -10 5 -10 10 0 6 5 10 10 10 6 0 10 -4 10 -10z m9880 -725 c-14 -17 -30 -20
-30 -6 0 5 8 12 18 14 9 3 19 5 21 6 2 0 -2 -6 -9 -14z m298 -33 c23 -19 25
-24 12 -32 -23 -15 -30 -12 -30 10 0 11 -7 20 -15 20 -8 0 -15 8 -15 18 0 23
13 38 18 20 2 -7 16 -23 30 -36z m-49 -27 c0 -5 -4 -3 -9 5 -5 8 -9 22 -9 30
0 16 17 -16 18 -35z m-31 -12 c-4 -35 -24 -41 -30 -9 -6 28 -1 36 19 36 10 0
13 -9 11 -27z m142 23 c0 -11 -19 -15 -25 -6 -3 5 1 10 9 10 9 0 16 -2 16 -4z
m-370 -26 c0 -5 -2 -10 -4 -10 -3 0 -8 5 -11 10 -3 6 -1 10 4 10 6 0 11 -4 11
-10z m-8717 -16 c11 -11 -5 -34 -24 -34 -18 0 -26 20 -12 33 8 9 28 9 36 1z
m8607 -4 c0 -5 -4 -10 -10 -10 -5 0 -10 5 -10 10 0 6 5 10 10 10 6 0 10 -4 10
-10z m110 -10 c0 -5 -4 -10 -10 -10 -5 0 -10 5 -10 10 0 6 5 10 10 10 6 0 10
-4 10 -10z m-119 -51 c-12 -10 -21 -21 -21 -26 1 -4 -3 -9 -9 -11 -14 -5 -14
-2 0 35 8 25 15 30 31 25 l21 -5 -22 -18z m60 -42 c-10 -26 -41 -36 -41 -13 0
9 7 16 15 16 8 0 15 7 15 16 0 8 4 13 10 9 5 -3 6 -15 1 -28z m-11531 -127 c0
-5 -4 -10 -10 -10 -5 0 -10 5 -10 10 0 6 5 10 10 10 6 0 10 -4 10 -10z m11590
-40 c0 -5 -4 -10 -10 -10 -5 0 -10 5 -10 10 0 6 5 10 10 10 6 0 10 -4 10 -10z
m-8223 -93 c-16 -16 -19 -16 -33 -3 -13 13 -13 17 2 34 15 18 18 18 33 3 15
-15 15 -17 -2 -34z m9776 -8 c3 -12 0 -22 -9 -26 -20 -7 -24 -1 -17 25 7 28
19 28 26 1z m-11168 -204 c54 -93 104 -180 112 -192 9 -16 23 -23 43 -23 16 0
32 -4 35 -10 6 -10 -46 -93 -68 -107 -7 -4 -25 -28 -41 -52 -39 -61 -72 -90
-134 -118 -74 -35 -58 -40 26 -9 l71 25 46 -24 c25 -14 58 -25 73 -25 15 -1
52 -9 82 -20 30 -11 65 -19 78 -20 12 0 22 -3 22 -7 0 -5 -20 -34 -45 -67 -33
-44 -43 -65 -40 -85 7 -38 25 -371 25 -450 l0 -69 -162 53 c-90 29 -175 58
-189 64 -25 13 -59 58 -59 81 0 6 -18 48 -40 92 -22 45 -40 87 -40 94 0 7 -6
19 -12 26 -7 8 -27 41 -45 74 l-32 61 24 52 c14 29 29 50 34 47 5 -3 7 3 4 14
-4 15 -14 20 -42 20 -30 0 -85 19 -57 20 5 0 -14 24 -43 54 -28 30 -51 58 -51
63 0 4 -14 23 -30 42 -33 37 -30 50 18 70 21 9 53 59 147 229 163 296 167 303
181 283 6 -9 55 -92 109 -186z m10045 185 c0 -5 -4 -10 -10 -10 -5 0 -10 5
-10 10 0 6 5 10 10 10 6 0 10 -4 10 -10z m-9566 -26 c25 -10 20 -53 -8 -66
-51 -23 -79 25 -34 56 26 19 22 18 42 10z m626 -44 c-17 -22 -37 -43 -43 -47
-6 -4 6 14 27 40 21 26 40 47 43 47 3 0 -10 -18 -27 -40z m-50 -64 c0 -2 -8
-10 -17 -17 -16 -13 -17 -12 -4 4 13 16 21 21 21 13z m-30 -39 c0 -2 -10 -12
-22 -23 l-23 -19 19 23 c18 21 26 27 26 19z m-40 -50 c0 -2 -10 -12 -22 -23
l-23 -19 19 23 c18 21 26 27 26 19z m-1690 -53 c0 -2 -7 -4 -15 -4 -8 0 -15 4
-15 10 0 5 7 7 15 4 8 -4 15 -8 15 -10z m1650 2 c0 -2 -8 -10 -17 -17 -16 -13
-17 -12 -4 4 13 16 21 21 21 13z m-80 -100 c0 -2 -8 -10 -17 -17 -16 -13 -17
-12 -4 4 13 16 21 21 21 13z m7710 -46 c0 -5 -4 -10 -10 -10 -5 0 -10 5 -10
10 0 6 5 10 10 10 6 0 10 -4 10 -10z m-7750 -4 c0 -2 -8 -10 -17 -17 -16 -13
-17 -12 -4 4 13 16 21 21 21 13z m5186 -48 c-14 -24 -69 -119 -124 -213 l-98
-170 -44 -7 c-24 -4 -45 -6 -47 -4 -3 2 51 99 118 214 129 222 124 216 197
221 l23 1 -25 -42z m-5216 9 c0 -2 -10 -12 -22 -23 l-23 -19 19 23 c18 21 26
27 26 19z m4980 -13 c0 -7 -228 -404 -239 -416 -3 -3 -27 -9 -53 -13 l-48 -7
100 172 c55 94 100 176 100 181 0 5 -12 7 -27 4 -16 -4 -37 -8 -48 -10 -17 -4
-65 -70 -65 -89 0 -4 11 -6 25 -6 14 0 25 -3 25 -8 0 -21 -35 -52 -65 -58 -32
-6 -40 -15 -91 -105 -55 -97 -56 -98 -100 -105 -25 -3 -46 -5 -48 -3 -3 4 227
405 239 417 5 5 242 49 278 51 9 1 17 -2 17 -5z m-5020 -38 c0 -2 -8 -10 -17
-17 -16 -13 -17 -12 -4 4 13 16 21 21 21 13z m4605 -56 c-11 -22 -24 -31 -53
-35 -20 -4 -45 -9 -54 -11 -9 -3 -63 -85 -120 -184 l-103 -178 -47 -10 c-27
-5 -48 -7 -48 -4 0 3 43 80 96 171 53 91 99 170 102 175 3 5 -15 7 -42 4 -25
-3 -46 -3 -46 -1 0 3 7 17 16 32 15 25 26 29 138 48 66 11 133 21 149 22 27 1
27 1 12 -29z m4225 0 c0 -5 -4 -10 -10 -10 -5 0 -10 5 -10 10 0 6 5 10 10 10
6 0 10 -4 10 -10z m-8772 -93 c-20 -23 -22 -23 -39 -6 -18 18 -17 19 3 42 20
23 22 23 39 6 18 -18 17 -19 -3 -42z m4162 56 c0 -5 -54 -100 -119 -213 -118
-204 -119 -205 -160 -214 -23 -5 -44 -6 -47 -3 -3 3 49 100 116 216 121 207
123 210 159 214 20 2 39 4 44 5 4 1 7 -1 7 -5z m-4300 -7 c0 -2 -8 -10 -17
-17 -16 -13 -17 -12 -4 4 13 16 21 21 21 13z m7410 -26 c0 -5 -4 -10 -10 -10
-5 0 -10 5 -10 10 0 6 5 10 10 10 6 0 10 -4 10 -10z m-3360 -12 c-1 -34 -36
-56 -105 -67 -125 -20 -123 -20 -151 -67 -15 -25 -25 -47 -23 -48 2 -2 38 2
79 9 114 21 114 21 95 -15 -9 -16 -17 -30 -18 -31 -1 0 -47 -8 -102 -17 l-100
-18 -37 -59 c-20 -33 -37 -63 -37 -66 -1 -3 32 0 72 7 121 22 135 18 100 -25
-15 -18 -45 -26 -162 -46 -80 -13 -146 -23 -147 -22 -4 3 230 405 243 418 7 7
188 44 286 58 4 1 7 -5 7 -11z m-420 -64 c0 -3 -7 -18 -16 -33 -14 -24 -26
-29 -117 -44 -55 -9 -103 -19 -105 -22 -3 -2 10 -62 29 -133 l33 -128 -22 -31
c-20 -29 -28 -31 -159 -52 -76 -12 -141 -21 -146 -21 -4 0 -1 13 7 29 17 31
23 33 139 52 42 6 77 16 77 22 0 5 -14 61 -31 124 l-32 115 42 41 c40 41 44
43 164 63 67 12 125 22 130 23 4 0 7 -2 7 -5z m-490 -273 c-102 -176 -126
-211 -149 -215 -85 -18 -283 -47 -287 -43 -6 5 213 386 235 408 9 9 36 20 60
23 44 7 44 7 29 -16 -47 -74 -190 -330 -186 -333 4 -5 108 12 114 18 2 1 49
81 104 177 56 96 103 176 105 178 3 4 89 19 93 16 2 -1 -51 -97 -118 -213z
m-5775 199 c3 -5 1 -10 -4 -10 -6 0 -11 5 -11 10 0 6 2 10 4 10 3 0 8 -4 11
-10z m1695 -3 c0 -8 -22 -58 -49 -113 -71 -146 -352 -677 -363 -689 -7 -7 -8
0 -4 20 3 17 15 93 26 170 36 238 35 237 124 334 28 31 76 85 106 121 30 35
68 77 84 94 16 17 35 41 43 54 17 25 33 29 33 9z m3714 -165 c-111 -107 -141
-142 -188 -224 -58 -100 -57 -98 -128 -113 -10 -2 -18 1 -18 5 0 5 26 54 58
109 l58 101 -8 68 c-4 37 -9 78 -10 92 -3 22 2 26 40 34 23 5 45 6 49 3 3 -4
8 -29 11 -57 2 -27 8 -50 11 -50 4 0 20 14 37 31 66 69 127 113 168 120 22 3
43 7 46 7 3 1 -54 -56 -126 -126z m-321 24 c-15 -18 -67 -76 -116 -129 l-87
-95 30 -78 c16 -43 28 -79 27 -81 -2 -2 -24 -6 -49 -9 l-46 -6 -22 68 c-13 38
-25 74 -27 80 -2 7 30 51 73 98 42 48 75 89 72 91 -2 3 -24 1 -49 -3 l-44 -8
-105 -179 c-95 -162 -108 -180 -138 -187 -69 -18 -68 -11 53 197 64 110 121
205 126 210 7 7 226 51 322 64 5 0 -4 -14 -20 -33z m7287 -236 c0 -5 -4 -10
-9 -10 -6 0 -13 5 -16 10 -3 6 1 10 9 10 9 0 16 -4 16 -10z m-1920 -174 c0 -3
-4 -8 -10 -11 -5 -3 -10 -1 -10 4 0 6 5 11 10 11 6 0 10 -2 10 -4z m1140 -171
c0 -87 -3 -105 -15 -105 -12 0 -15 18 -15 105 0 87 3 105 15 105 12 0 15 -18
15 -105z m-634 59 c20 -20 34 -46 34 -60 0 -25 -31 -64 -52 -64 -9 0 -9 3 0
12 16 16 15 43 -3 58 -13 11 -15 6 -15 -35 0 -54 -20 -85 -55 -85 -28 0 -45
18 -45 50 0 32 17 50 47 50 21 0 23 4 23 55 0 67 16 72 66 19z m384 22 c0 -11
-12 -15 -42 -14 -80 1 -116 -86 -56 -136 17 -13 33 -17 65 -13 32 3 43 1 43
-9 0 -18 -42 -28 -84 -20 -92 17 -116 147 -35 192 34 19 109 18 109 0z m892
-37 c9 -24 25 -68 37 -96 20 -51 20 -53 2 -53 -12 0 -21 9 -25 25 -5 21 -12
25 -46 25 -34 0 -42 -4 -50 -25 -5 -14 -17 -25 -26 -25 -11 0 -14 5 -9 18 4 9
18 46 32 81 45 118 56 125 85 50z m221 36 c1 -5 -6 -11 -15 -13 -11 -2 -18 3
-18 13 0 17 30 18 33 0z m-950 -73 c12 -11 17 -27 15 -50 -8 -93 -138 -90
-138 2 0 66 71 93 123 48z m250 0 c24 -21 22 -77 -3 -102 -27 -27 -66 -25 -95
5 -70 69 24 162 98 97z m127 9 c0 -5 -9 -11 -20 -14 -17 -4 -20 -14 -20 -56 0
-39 -4 -51 -15 -51 -12 0 -15 14 -15 64 0 63 1 65 28 68 30 4 42 1 42 -11z
m84 13 c25 -9 19 -24 -9 -24 -34 0 -32 -16 5 -35 33 -17 41 -54 16 -74 -20
-17 -70 -10 -74 10 -2 12 4 15 26 11 44 -6 47 13 7 37 -38 22 -44 41 -19 65
17 18 24 19 48 10z m426 -13 c0 -5 -9 -11 -20 -14 -17 -4 -20 -14 -20 -56 0
-39 -4 -51 -15 -51 -12 0 -15 14 -15 64 0 63 1 65 28 68 30 4 42 1 42 -11z
m164 13 c25 -9 19 -24 -9 -24 -35 0 -31 -23 5 -37 56 -21 29 -90 -32 -81 -35
5 -34 28 1 28 44 0 46 15 6 39 -52 30 -48 58 12 80 1 1 8 -2 17 -5z m174 -22
c6 -9 12 -24 12 -34 0 -15 -8 -18 -50 -18 -38 0 -50 -4 -50 -15 0 -21 40 -35
68 -24 30 12 32 11 32 -5 0 -14 -29 -26 -67 -26 -34 0 -63 34 -63 73 0 65 79
98 118 49z m-278 -47 c0 -51 -3 -65 -15 -65 -12 0 -15 14 -15 65 0 51 3 65 15
65 12 0 15 -14 15 -65z m-392 -228 c12 -14 82 -11 82 4 0 5 7 9 15 9 8 0 15
-4 15 -10 0 -5 14 -10 30 -10 17 0 30 -4 30 -10 0 -5 -7 -10 -15 -10 -8 0 -15
-4 -15 -9 0 -5 7 -14 15 -21 31 -26 16 -35 -60 -38 -41 -1 -75 1 -75 6 0 4 9
15 20 25 31 26 25 40 -14 34 -25 -4 -39 -1 -50 12 -9 10 -13 21 -9 24 10 10
19 8 31 -6z m595 -4 c18 -17 19 -17 32 0 15 21 37 23 29 2 -4 -9 0 -15 10 -15
9 0 16 -4 16 -10 0 -5 -9 -10 -20 -10 -15 0 -20 -7 -20 -26 0 -23 2 -25 15
-14 22 19 31 4 15 -26 -13 -22 -12 -30 2 -55 11 -18 13 -31 7 -35 -15 -9 -26
5 -43 51 l-15 40 0 -47 c-1 -36 -6 -50 -20 -58 -25 -13 -31 -13 -31 1 0 7 8
18 17 25 10 7 15 15 11 19 -4 4 -19 -2 -34 -14 -46 -36 -48 -10 -3 30 52 46
45 51 -12 9 -23 -16 -45 -27 -50 -24 -5 3 -9 -9 -9 -25 0 -21 -5 -31 -15 -31
-12 0 -15 19 -15 110 l0 110 40 0 c22 0 40 -4 40 -10 0 -5 7 -10 15 -10 9 0
12 6 9 15 -8 20 5 19 29 -2z m-183 -38 c0 -45 0 -45 -35 -45 -19 0 -35 -4 -35
-10 0 -5 18 -10 40 -10 22 0 40 -4 40 -10 0 -5 -18 -10 -40 -10 -22 0 -40 -4
-40 -10 0 -5 16 -10 35 -10 19 0 35 -4 35 -10 0 -5 -16 -10 -35 -10 -19 0 -35
-4 -35 -10 0 -5 20 -10 45 -10 25 0 45 -4 45 -10 0 -6 -43 -10 -110 -10 -67 0
-110 4 -110 10 0 6 23 10 50 10 28 0 50 5 50 10 0 6 -16 10 -35 10 -19 0 -35
5 -35 10 0 6 16 10 35 10 19 0 35 5 35 10 0 14 -63 13 -77 -1 -6 -6 -16 -8
-23 -4 -8 5 -6 13 6 26 13 14 17 33 15 69 l-2 50 90 0 91 0 0 -45z m-420 -15
c11 -6 17 -17 14 -25 -5 -11 -10 -12 -25 -2 -10 6 -19 17 -19 24 0 16 6 16 30
3z m20 -71 c0 -5 -7 -26 -15 -46 -22 -53 -40 -30 -19 25 15 36 34 49 34 21z
m52 -13 c-5 -41 -39 -83 -55 -67 -6 6 -4 15 7 27 9 9 20 29 23 45 8 42 30 37
25 -5z m44 -16 c-1 -67 -20 -69 -24 -2 -2 40 0 52 11 52 11 0 15 -12 13 -50z
m45 8 c1 -24 3 -35 6 -25 7 26 23 21 23 -8 0 -21 -5 -25 -30 -25 -29 0 -30 1
-30 50 0 38 4 50 15 50 11 0 15 -12 16 -42z"/>
<path d="M11620 9303 c-113 -19 -205 -35 -206 -36 -14 -22 -301 -376 -312
-384 -31 -25 -56 -14 -112 46 l-55 60 -219 -37 c-127 -21 -221 -42 -223 -49
-2 -6 52 -76 121 -155 76 -86 126 -151 126 -164 0 -12 -8 -32 -18 -44 -16 -20
-46 -28 -243 -60 l-224 -37 -50 -59 c-155 -185 -314 -389 -306 -392 5 -2 49 4
98 12 106 19 145 20 161 4 31 -31 12 -62 -194 -321 -205 -256 -207 -258 -242
-255 -19 2 -40 11 -45 20 -8 12 -4 81 14 245 14 125 25 229 24 230 -1 2 -40
-4 -88 -13 -104 -18 -127 -11 -127 39 0 27 39 80 233 323 420 526 468 586 465
588 -3 3 -1524 -247 -1615 -265 -29 -6 -53 -15 -53 -21 0 -5 39 -64 88 -131
48 -66 90 -126 94 -133 4 -6 -22 -279 -58 -605 -133 -1217 -177 -1649 -169
-1657 3 -3 5 8 5 24 l0 29 27 -40 c15 -22 30 -41 35 -43 4 -2 8 -10 8 -17 0
-16 22 -25 61 -25 16 0 44 -6 62 -13 18 -7 49 -12 70 -11 21 1 40 -3 43 -7 3
-5 16 -2 30 7 l24 16 1 -38 c0 -22 2 -34 4 -29 6 14 93 773 160 1395 31 283
61 527 66 542 13 31 46 45 133 54 100 10 97 41 42 -464 -147 -1345 -137 -1224
-104 -1246 62 -44 105 -13 264 192 76 98 141 182 145 187 4 6 19 120 34 255
15 135 31 253 36 262 11 21 50 33 181 54 58 9 110 19 116 23 5 3 136 165 290
358 282 353 307 378 346 356 9 -5 104 -123 211 -262 171 -222 195 -258 195
-290 0 -45 -108 -1029 -116 -1054 -3 -11 -20 -25 -37 -32 -18 -7 -180 -36
-362 -65 -329 -53 -330 -53 -358 -84 -32 -36 -387 -493 -387 -499 0 -2 21 -1
48 4 26 4 137 22 247 39 l200 31 36 41 35 41 384 63 c415 70 447 79 511 151
64 74 68 91 110 467 21 193 39 354 39 359 0 18 43 47 69 47 27 0 43 -17 151
-157 67 -87 126 -159 131 -161 5 -2 91 10 191 27 101 16 202 33 226 36 23 4
42 9 42 12 0 3 -120 161 -267 352 -508 658 -523 678 -523 704 0 15 25 55 68
108 273 338 305 382 276 377 -16 -3 -118 -20 -226 -38 l-197 -34 -51 -63 c-63
-79 -93 -99 -123 -86 -33 15 -167 196 -167 225 0 18 131 190 461 604 254 319
466 585 472 592 13 16 8 16 -233 -25z m-2240 -868 c-17 -49 -30 -92 -30 -96 0
-4 34 -20 75 -36 41 -15 75 -31 75 -34 0 -4 -15 -9 -32 -13 -18 -4 -67 -16
-108 -27 -71 -19 -80 -25 -175 -114 -55 -51 -101 -93 -102 -92 -1 1 7 40 18
87 11 46 18 89 15 96 -2 6 -35 22 -71 34 -37 12 -63 26 -58 30 4 4 59 20 121
35 l113 29 91 98 c50 54 92 97 94 95 2 -2 -10 -43 -26 -92z"/>
<path d="M11661 8676 l-183 -31 -179 -225 c-98 -123 -177 -226 -175 -227 7 -7
554 90 582 103 42 20 99 77 119 120 12 26 44 231 45 287 0 9 5 10 -209 -27z"/>
<path d="M8195 8550 c-55 -10 -446 -75 -870 -145 -423 -69 -778 -129 -787
-133 -23 -9 -517 -630 -523 -656 -2 -12 -23 -202 -47 -423 -37 -346 -41 -403
-28 -403 8 0 67 9 130 20 151 26 186 26 200 -1 16 -29 -4 -74 -38 -87 -15 -6
-91 -20 -168 -32 -78 -13 -146 -25 -151 -29 -15 -9 -654 -814 -650 -817 1 -1
81 12 177 28 173 29 250 54 295 95 11 10 51 55 89 100 80 96 16 77 538 163
273 45 372 58 386 51 22 -12 30 -43 22 -83 -11 -60 -10 -60 -426 -128 -214
-34 -396 -67 -405 -71 -18 -9 -204 -249 -193 -249 3 0 -1 -11 -10 -25 -20 -31
-20 -35 3 -35 11 0 21 9 24 21 5 17 11 20 32 17 20 -4 26 -1 31 16 6 25 46 46
90 46 18 0 36 5 39 10 4 6 15 8 26 5 10 -4 19 -2 19 3 0 5 6 9 13 10 21 3 62
10 67 12 3 1 8 2 13 1 4 0 7 3 7 8 0 5 12 9 27 9 15 0 29 5 31 11 2 6 24 11
49 11 36 0 46 4 50 20 6 23 19 26 26 8 4 -10 7 -10 14 -1 5 8 43 15 89 19 91
7 90 7 126 -2 15 -3 36 -3 45 1 10 5 24 7 32 6 8 -1 17 3 21 9 4 6 29 13 56
15 29 1 69 13 98 29 27 14 55 26 62 26 8 0 14 5 14 10 0 6 17 10 38 10 21 0
42 3 46 7 4 4 25 6 46 4 22 -1 40 1 40 6 0 11 59 33 87 33 12 0 24 6 27 13 5
9 7 9 12 0 4 -9 13 -7 32 6 20 15 52 21 126 25 55 3 102 10 106 16 3 5 75 9
172 9 92 -1 171 2 177 5 5 3 11 2 13 -2 1 -5 41 -6 88 -2 87 6 104 2 144 -33
15 -13 22 -14 28 -5 4 7 8 9 8 3 1 -5 5 0 10 13 5 12 18 22 28 22 10 0 24 6
31 13 11 10 13 10 7 0 -19 -34 11 -3 96 100 51 61 99 119 105 128 13 16 33 19
-657 -96 -475 -80 -470 -80 -470 -6 0 22 3 47 6 56 8 21 49 41 99 49 22 3 177
29 345 56 355 58 379 67 463 163 86 99 296 351 294 354 -1 1 -243 -38 -537
-87 -294 -49 -549 -90 -565 -90 -69 0 -72 46 -10 128 92 122 80 115 265 145
207 34 230 40 282 80 47 36 323 375 364 447 52 91 63 150 104 528 22 202 43
388 46 415 8 56 14 55 -141 27z m-331 -478 c15 -18 15 -31 -4 -203 -11 -101
-23 -198 -25 -216 -4 -22 -68 -111 -207 -285 -111 -139 -264 -332 -341 -428
-76 -96 -145 -179 -153 -183 -8 -5 -177 -35 -375 -68 -389 -64 -399 -64 -399
-10 0 28 29 70 111 164 l34 39 295 49 c162 27 298 49 302 49 8 0 370 451 366
455 -2 2 -93 -12 -203 -31 -110 -19 -215 -33 -234 -32 -39 3 -57 25 -48 59 6
22 391 486 473 569 33 34 40 36 186 61 189 33 201 33 222 11z m-634 -102 c23
-23 24 -36 7 -66 -7 -11 -119 -147 -250 -302 l-238 -281 -52 -10 c-98 -19
-237 -41 -262 -41 -45 0 -48 27 -26 234 l20 188 42 55 c23 30 59 73 79 96 l37
42 299 51 c165 29 305 52 312 53 6 0 21 -8 32 -19z m77 -1756 c-3 -3 -12 -4
-19 -1 -8 3 -5 6 6 6 11 1 17 -2 13 -5z m-1499 -137 c4 -20 -25 -34 -39 -20
-14 14 1 45 20 41 9 -2 17 -11 19 -21z m-4 -293 c5 -14 4 -15 -9 -4 -17 14
-19 20 -6 20 5 0 12 -7 15 -16z"/>
<path d="M6224 8196 c-66 -79 -130 -149 -144 -155 -36 -15 -1126 -193 -1158
-189 -22 2 -28 9 -30 35 -3 27 13 52 118 183 67 84 120 154 118 156 -2 2 -102
-13 -221 -33 l-218 -36 -153 -191 c-84 -105 -159 -196 -167 -203 -9 -7 -149
-34 -312 -61 -271 -45 -299 -52 -316 -73 -10 -13 -91 -114 -179 -224 -88 -110
-155 -201 -149 -202 7 -2 116 14 242 36 188 31 234 36 250 26 36 -22 30 -51
-27 -123 -29 -37 -121 -154 -206 -260 l-153 -193 -19 -172 c-29 -260 -28 -242
-5 -240 18 2 746 122 1284 210 l223 37 29 -32 c16 -18 29 -41 29 -52 0 -11 6
-20 14 -20 8 0 42 -36 76 -79 41 -54 66 -78 78 -75 9 2 78 13 154 25 75 12
140 24 145 28 5 3 26 27 47 53 38 48 38 48 21 75 -18 27 -62 89 -434 598 -96
132 -175 241 -176 243 -1 1 -58 -7 -127 -19 l-125 -22 -59 -75 c-32 -41 -63
-81 -67 -88 -5 -9 7 -39 34 -84 44 -75 47 -110 10 -130 -11 -5 -148 -31 -304
-57 -397 -65 -393 -72 -139 250 97 123 193 243 212 266 l35 42 604 100 c699
115 665 105 771 233 36 44 164 199 285 345 122 146 224 272 229 279 22 36 -13
-3 -120 -132z"/>
<path d="M10435 7483 c-55 -64 -245 -285 -422 -491 -178 -207 -321 -377 -319
-379 2 -2 33 1 68 7 l64 11 168 194 c93 107 177 197 187 200 30 10 56 -4 79
-40 14 -23 19 -42 15 -56 -4 -12 -160 -214 -347 -448 -187 -234 -311 -396
-276 -360 l63 65 209 34 c191 30 211 35 231 59 55 63 715 894 712 897 -2 2
-111 -14 -243 -36 -260 -43 -294 -46 -312 -28 -31 31 -13 62 128 223 76 88
139 167 140 176 0 22 -28 89 -38 89 -4 0 -52 -53 -107 -117z"/>
<path d="M2600 7463 c-113 -19 -208 -38 -212 -41 -3 -4 43 -70 104 -147 61
-77 172 -219 248 -315 76 -96 149 -186 163 -198 44 -41 78 -42 291 -7 109 18
199 35 201 37 2 2 -71 98 -161 213 -91 116 -216 274 -277 352 -81 103 -118
143 -132 142 -11 -1 -112 -17 -225 -36z"/>
<path d="M5605 7353 l-100 -104 -130 -33 c-71 -18 -125 -35 -120 -38 6 -3 40
-15 77 -27 37 -13 70 -26 73 -30 4 -7 -23 -132 -41 -196 -4 -11 40 25 97 81
57 56 114 106 125 112 12 6 67 22 124 36 56 14 104 27 106 29 3 2 -31 17 -73
32 -43 15 -81 31 -86 35 -4 3 6 51 23 105 17 54 29 99 28 100 -2 1 -48 -45
-103 -102z"/>
<path d="M2415 6581 c-148 -25 -219 -42 -217 -50 5 -25 367 -473 393 -487 42
-21 116 -17 174 10 47 21 116 87 165 157 l20 27 -147 188 c-82 103 -152 188
-158 190 -5 1 -109 -15 -230 -35z m373 -363 c-6 -18 -28 -21 -28 -4 0 9 7 16
16 16 9 0 14 -5 12 -12z"/>
<path d="M4753 6335 c-106 -18 -196 -36 -201 -39 -5 -3 -191 -234 -413 -512
-222 -279 -528 -663 -680 -853 -152 -190 -273 -347 -269 -349 19 -7 366 59
404 77 23 11 58 38 78 58 20 21 210 256 423 523 213 267 391 487 396 488 6 2
7 -12 4 -35 -8 -56 -145 -1338 -145 -1357 0 -25 37 -56 68 -56 63 1 84 25 506
588 229 304 415 558 413 564 -1 7 4 12 10 13 15 0 44 39 38 49 -3 3 -2 4 2 1
9 -7 53 57 46 68 -3 6 -2 8 3 5 7 -5 167 193 161 198 -2 2 -212 -31 -365 -57
l-72 -12 -86 -109 c-105 -134 -122 -150 -153 -146 -47 6 -48 20 -17 293 16
141 27 258 24 260 -2 3 -60 -65 -127 -150 -115 -144 -125 -155 -156 -155 -25
0 -35 5 -40 21 -8 24 3 142 16 175 4 13 89 125 189 249 99 124 180 228 180
230 0 9 -42 3 -237 -30z m262 -1086 c0 -7 -8 -15 -17 -17 -18 -3 -25 18 -11
32 10 10 28 1 28 -15z m-1139 -156 c-3 -8 -6 -17 -6 -19 0 -2 -6 -4 -14 -4
-21 0 -30 19 -16 35 14 17 43 8 36 -12z m-282 -236 c36 -26 -16 -86 -53 -62
-17 10 -13 53 7 64 22 14 25 13 46 -2z m936 -186 c0 -11 9 -23 21 -26 20 -7
19 -7 -5 -30 -15 -13 -26 -29 -26 -35 0 -5 -4 -10 -10 -10 -5 0 -10 9 -10 20
0 11 -6 20 -14 20 -24 0 -29 21 -7 27 12 3 24 16 27 29 7 29 24 32 24 5z"/>
<path d="M9559 6023 l-24 -28 28 24 c15 14 27 26 27 28 0 8 -8 1 -31 -24z"/>
<path d="M9509 5963 l-24 -28 28 24 c15 14 27 26 27 28 0 8 -8 1 -31 -24z"/>
<path d="M9464 5908 l-19 -23 23 19 c21 18 27 26 19 26 -2 0 -12 -10 -23 -22z"/>
<path d="M5391 5250 c-14 -33 -46 -72 -58 -71 -4 1 -8 -5 -8 -11 -1 -7 -6 -12
-13 -10 -7 1 -12 -7 -12 -19 0 -11 -4 -17 -10 -14 -5 3 -10 -2 -10 -11 0 -10
-3 -14 -6 -11 -4 4 -23 -15 -43 -41 -20 -26 -67 -85 -104 -132 -78 -96 -94
-122 -75 -116 7 3 103 19 213 37 110 17 204 35 208 39 4 4 -7 5 -25 4 -24 -2
-20 0 12 7 55 13 63 20 42 39 -14 13 -15 12 -9 -3 4 -11 3 -16 -4 -12 -5 4 -7
15 -4 26 4 11 2 19 -4 19 -6 0 -11 10 -11 22 0 12 3 18 8 14 4 -4 7 -13 7 -19
0 -23 30 -12 33 12 3 16 0 21 -9 15 -9 -5 -10 -2 -5 11 5 15 4 16 -9 5 -13
-11 -15 -8 -15 22 0 35 -13 84 -32 125 -8 17 -7 25 6 38 9 9 16 21 16 26 0 5
0 12 0 17 0 4 -4 8 -10 8 -5 1 -11 3 -12 4 -2 1 -12 4 -24 5 -14 1 -24 -7 -33
-25z m67 -171 c-1 -20 -4 -26 -9 -17 -12 18 -11 48 0 48 5 0 9 -14 9 -31z"/>
<path d="M5688 4993 c7 -3 16 -2 19 1 4 3 -2 6 -13 5 -11 0 -14 -3 -6 -6z"/>
<path d="M5498 4893 c7 -3 16 -2 19 1 4 3 -2 6 -13 5 -11 0 -14 -3 -6 -6z"/>
<path d="M1922 4710 c0 -19 2 -27 5 -17 2 9 2 25 0 35 -3 9 -5 1 -5 -18z"/>
<path d="M12396 3936 c-3 -13 -9 -31 -12 -40 -5 -13 1 -16 26 -16 27 0 31 3
25 18 -4 9 -10 27 -12 40 -7 29 -19 28 -27 -2z"/>
<path d="M11631 3906 c-7 -8 -11 -27 -9 -43 3 -25 7 -28 38 -28 31 0 35 3 38
28 4 32 -13 57 -38 57 -10 0 -23 -6 -29 -14z"/>
<path d="M11882 3908 c-7 -7 -12 -21 -12 -33 0 -46 64 -64 79 -22 18 49 -32
90 -67 55z"/>
<path d="M12857 3914 c-15 -16 -5 -24 29 -24 24 0 34 4 32 13 -5 13 -50 22
-61 11z"/>
<path d="M12362 3608 c-17 -17 -15 -28 7 -28 16 0 31 18 31 36 0 9 -27 3 -38
-8z"/>
<path d="M12760 3570 c0 -33 4 -60 9 -60 4 0 8 27 7 60 -1 78 -16 78 -16 0z"/>
<path d="M12795 3599 c-14 -43 15 -75 43 -47 18 18 15 33 -3 18 -11 -9 -19
-10 -26 -3 -8 8 -5 13 10 18 26 8 27 21 1 28 -13 3 -21 -1 -25 -14z"/>
<path d="M12871 3598 c0 -7 4 -22 9 -33 8 -18 9 -17 9 7 1 15 -3 30 -9 33 -5
3 -10 0 -9 -7z"/>
<path d="M12524 3622 c8 -13 126 -15 126 -3 0 7 -26 11 -66 11 -36 0 -63 -4
-60 -8z"/>
<path d="M12525 3590 c-4 -6 18 -10 59 -10 37 0 66 4 66 10 0 6 -26 10 -59 10
-33 0 -63 -4 -66 -10z"/>
<path d="M12535 3550 c-4 -6 5 -10 19 -10 14 0 26 5 26 10 0 6 -9 10 -19 10
-11 0 -23 -4 -26 -10z"/>
</g>
</svg>
